<?xml version="1.0" encoding="UTF-8" standalone="no"?>
<svg
   xmlns:dc="http://purl.org/dc/elements/1.1/"
   xmlns:cc="http://creativecommons.org/ns#"
   xmlns:rdf="http://www.w3.org/1999/02/22-rdf-syntax-ns#"
   xmlns:svg="http://www.w3.org/2000/svg"
   xmlns="http://www.w3.org/2000/svg"
   xmlns:sodipodi="http://sodipodi.sourceforge.net/DTD/sodipodi-0.dtd"
   xmlns:inkscape="http://www.inkscape.org/namespaces/inkscape"
   width="1132"
   viewBox="0 0 1132 804"
   height="804"
   id="svg2"
   version="1.1"
   inkscape:version="0.91 r13725"
   sodipodi:docname="IPhoneWirefame2.svg">
  <metadata
     id="metadata136">
    <rdf:RDF>
      <cc:Work
         rdf:about="">
        <dc:format>image/svg+xml</dc:format>
        <dc:type
           rdf:resource="http://purl.org/dc/dcmitype/StillImage" />
        <dc:title></dc:title>
      </cc:Work>
    </rdf:RDF>
  </metadata>
  <sodipodi:namedview
     pagecolor="#ffffff"
     bordercolor="#666666"
     borderopacity="1"
     objecttolerance="10"
     gridtolerance="10"
     guidetolerance="10"
     inkscape:pageopacity="0"
     inkscape:pageshadow="2"
     inkscape:window-width="1920"
     inkscape:window-height="1007"
     id="namedview134"
     showgrid="false"
     inkscape:zoom="0.74208735"
     inkscape:cx="360.79093"
     inkscape:cy="434.43291"
     inkscape:window-x="0"
     inkscape:window-y="0"
     inkscape:window-maximized="1"
     inkscape:current-layer="svg2" />
  <style
     type="text/css"
     id="style4"><![CDATA[
.st4 {fill:#0b6bfe;font-family:Arial;font-size:14.02pt}
.st1 {fill:#454545;font-family:Arial Narrow;font-size:8.01pt}
.st3 {fill:#ffffff;font-family:Comic Sans MS;font-size:14.02pt}
.st2 {fill:#ffffff;font-family:Comic Sans MS;font-size:18.02pt}
]]></style>
  <defs
     id="defs6">
    <filter
       id="filter1">
      <feGaussianBlur
         stdDeviation="1"
         id="feGaussianBlur9" />
    </filter>
  </defs>
  <g
     id="page1"
     transform="translate(5,5)">
    <rect
       width="1123"
       y="0"
       height="794"
       x="0"
       id="rect12"
       stroke="#808080"
       fill="#ffffff" />
    <path
       d="M0,0L549,0L594.1,70.3L549,139.5L0,139.5L0,0z"
       id="shape1"
       transform="matrix(-1,0,0,1,674.1,496)"
       stroke="#13a954"
       fill="#13a954" />
    <path
       d="M0,0L549,0L594.1,46.5L549,92.2L0,92.2L0,0z"
       id="shape2"
       transform="translate(402,402.78)"
       stroke="#ffb539"
       fill="#ffb539" />
    <path
       d="M0,0L549,0L594.1,67.3L549,133.5L0,133.5L0,0z"
       id="shape3"
       transform="matrix(-1,0,0,1,675.2,268.5)"
       stroke="#1f6183"
       fill="#1f6183" />
    <path
       d="M0,0L549,0L594.1,46.5L549,92.2L0,92.2L0,0z"
       id="shape4"
       transform="translate(402.88,175.78)"
       stroke="#ec584a"
       fill="#ec584a" />
    <path
       d="M0,30.2L240,30.2"
       id="shape5"
       transform="translate(434.07,605.24)"
       stroke="#fecc81"
       fill="none" />
    <g
       id="shape6"
       transform="translate(383.04,71.47)">
      <path
         d="M1,38.3C1,38.3,3.8,4.4,41.4,1L271.1,1C271.1,1,306.2,1.9,310.9,37.7L310.9,617.2C310.9,617.2,312.7,650.6,275.4,656.7L39.2,656.7C39.2,656.7,7.5,656.7,1,620.6L1,38.3zM19.6,87.2L19.6,564.9L292.3,564.9L292.3,87.2L19.6,87.2z"
         id="path20"
         filter="url(#filter1)"
         fill-opacity="0.2"
         fill="#000000" />
      <path
         d="M0,37.3C0,37.3,2.8,3.4,40.4,0L270.1,0C270.1,0,305.2,.9,309.9,36.7L309.9,616.2C309.9,616.2,311.7,649.6,274.4,655.7L38.2,655.7C38.2,655.7,6.5,655.7,0,619.6L0,37.3zM18.6,86.2L18.6,563.9L291.3,563.9L291.3,86.2L18.6,86.2z"
         id="path22"
         stroke="#222222"
         fill="#222222" />
    </g>
    <g
       id="shape7"
       transform="translate(592.78,65.55)">
      <path
         d="M3.8,1L47.9,1C49.4,1,50.6,2.2,50.6,3.7L50.6,6.8L1,6.8L1,3.7C1,2.2,2.2,1,3.8,1z"
         id="path25"
         filter="url(#filter1)"
         fill-opacity="0.2"
         fill="#000000" />
      <path
         d="M2.8,-0L46.9,-0C48.4,-0,49.6,1.2,49.6,2.7L49.6,5.8L0,5.8L0,2.7C0,1.2,1.2,-0,2.8,-0z"
         id="path27"
         stroke="#222222"
         fill="#222222" />
    </g>
    <g
       id="shape8"
       transform="translate(377.72,160.52)">
      <path
         d="M3.8,1L6.2,1.1L6.2,29.2L3.8,29.2C2.2,29.2,1,27.9,1,26.4L1,3.7C1,2.2,2.2,1,3.8,1z"
         id="path30"
         filter="url(#filter1)"
         fill-opacity="0.2"
         fill="#000000" />
      <path
         d="M2.8,0L5.2,.1L5.2,28.2L2.8,28.2C1.2,28.2,0,26.9,0,25.4L0,2.7C0,1.2,1.2,0,2.8,0z"
         id="path32"
         stroke="#222222"
         fill="#222222" />
    </g>
    <g
       id="shape9"
       transform="translate(377.87,276.86)">
      <path
         d="M3.8,1L6.1,1.1L6.1,22.8L3.8,22.7C2.2,22.7,1,21.5,1,20L1,3.7C1,2.2,2.2,1,3.8,1z"
         id="path35"
         filter="url(#filter1)"
         fill-opacity="0.2"
         fill="#000000" />
      <path
         d="M2.8,0L5.1,.1L5.1,21.8L2.8,21.7C1.2,21.7,0,20.5,0,19L0,2.7C0,1.2,1.2,0,2.8,0z"
         id="path37"
         stroke="#222222"
         fill="#222222" />
    </g>
    <path
       d="M2.6,0L15.4,0C16.8,0,18,1.1,18,2.6L18,15.3C18,16.7,16.8,17.8,15.4,17.8L2.6,17.8C1.1,17.8,0,16.7,0,15.3L0,2.6C0,1.1,1.1,0,2.6,0z"
       id="shape10"
       transform="translate(528.46,670.05)"
       stroke="#ffffff"
       fill="#ffffff" />
    <g
       id="shape11"
       transform="translate(377.76,223.13)">
      <path
         d="M3.8,1L6.1,1.1L6.1,22.8L3.8,22.7C2.2,22.7,1,21.5,1,20L1,3.7C1,2.2,2.2,1,3.8,1z"
         id="path41"
         filter="url(#filter1)"
         fill-opacity="0.2"
         fill="#000000" />
      <path
         d="M2.8,0L5.1,.1L5.1,21.8L2.8,21.7C1.2,21.7,0,20.5,0,19L0,2.7C0,1.2,1.2,0,2.8,0z"
         id="path43"
         stroke="#222222"
         fill="#222222" />
    </g>
    <path
       d="M0,0L270.2,0L270.2,17L0,17L0,0z"
       id="shape12"
       transform="translate(402.88,157.45)"
       stroke="#ebebeb"
       fill="#ebebeb" />
    <g
       transform="translate(647.25,161.33)"
       id="g46">
      <path
         d="M18.1,-0L.8,-0C.4,-0,0,.4,0,.8L0,7.1C0,7.6,.4,7.9,.8,7.9L18.1,7.9C18.6,7.9,19,7.6,19,7.1L19,.8C19,.4,18.6,-0,18.1,-0"
         id="shape13"
         stroke="#000000"
         fill="none"
         transform="translate(-0,0)" />
      <path
         d="M13.1,5.8C13.1,6.1,13,6.3,12.8,6.3L.3,6.3C.1,6.3,0,6.1,0,5.8L0,.4C0,.2,.1,0,.3,0L12.8,0C13,0,13.1,.2,13.1,.4L13.1,5.8"
         id="shape14"
         transform="translate(0.84,0.84)"
         fill="#32cd32" />
      <path
         d="M1.3,1.7C1.3,2.4,.7,2.9,0,2.9L0,-0C.7,-0,1.3,.6,1.3,1.3"
         id="shape15"
         transform="translate(19.37,2.51)"
         stroke="#000000"
         fill="#000000" />
    </g>
    <path
       d="M4.7,7.4L6.6,9.4L8.4,7.4C8.4,7.4,7.5,6.6,6.6,6.6C5.6,6.6,4.7,7.4,4.7,7.4M2.3,4.9L3.4,6C3.4,6,4.4,4.7,6.6,4.7C8.8,4.7,9.7,6,9.7,6L10.8,4.9C10.8,4.9,8.8,3.1,6.6,3.1C4.4,3.1,2.3,4.9,2.3,4.9M6.6,-0C3,-0,0,2.7,0,2.7L1.1,3.8C1.1,3.8,3.3,1.6,6.6,1.6C9.9,1.6,12,3.8,12,3.8L13.1,2.7C13.1,2.7,10.2,-0,6.6,-0"
       id="shape16"
       transform="translate(479.92,161.23)"
       stroke="#ffffff"
       fill="#ffffff" />
    <g
       transform="translate(405.72,163.59)"
       id="g52">
      <path
         d="M5.6,2.8C5.6,4.4,4.4,5.7,2.8,5.7C1.3,5.7,-0,4.4,-0,2.8C-0,1.3,1.3,-0,2.8,-0C4.4,-0,5.6,1.3,5.6,2.8z"
         id="shape17"
         stroke="#595959"
         fill="#ffffff"
         transform="translate(0,0)" />
      <path
         d="M5.6,2.8C5.6,4.4,4.4,5.7,2.8,5.7C1.3,5.7,-0,4.4,-0,2.8C-0,1.3,1.3,-0,2.8,-0C4.4,-0,5.6,1.3,5.6,2.8z"
         id="shape18"
         transform="translate(7.14,0)"
         stroke="#595959"
         fill="#ffffff" />
      <path
         d="M5.6,2.8C5.6,4.4,4.4,5.7,2.8,5.7C1.3,5.7,-0,4.4,-0,2.8C-0,1.3,1.3,-0,2.8,-0C4.4,-0,5.6,1.3,5.6,2.8z"
         id="shape19"
         transform="translate(14.27,0)"
         stroke="#595959"
         fill="#ffffff" />
      <path
         d="M2.8,0C1.3,0,0,1.3,0,2.8C0,4.4,1.3,5.7,2.8,5.7C4.4,5.7,5.6,4.4,5.6,2.8C5.6,1.3,4.4,0,2.8,0"
         id="shape20"
         transform="translate(21.41,0)"
         stroke="#595959"
         fill="none" />
      <path
         d="M2.8,0C1.3,0,0,1.3,0,2.8C0,4.4,1.3,5.7,2.8,5.7C4.4,5.7,5.6,4.4,5.6,2.8C5.6,1.3,4.4,0,2.8,0"
         id="shape21"
         transform="translate(28.55,0)"
         stroke="#595959"
         fill="none" />
    </g>
    <g
       id="shape22"
       transform="translate(439.44,158.3)">
      <text
         class="st1"
         id="text60">
        <tspan
           y="10.7"
           x="10.1"
           id="tspan62">AT&amp;T</tspan>
      </text>
    </g>
    <g
       id="shape23"
       transform="translate(524.87,158.3)">
      <text
         class="st1"
         id="text65">
        <tspan
           y="10.7"
           x="17.3"
           id="tspan67">2:00 PM</tspan>
      </text>
    </g>
    <path
       d="M0,7.1L4.9,2.4L2.4,0L2.4,9.4L4.9,7.1L0,2.4"
       id="shape24"
       transform="translate(636.88,161.23)"
       stroke="#ffffff"
       fill="none" />
    <g
       transform="translate(508.18,94.74)"
       id="g70">
      <path
         d="M6,0L52.2,0C55.6,0,58.3,2.9,58.3,6.4C58.3,10.2,55.6,13.1,52.2,13.1L6,13.1C2.7,13.1,0,10.2,0,6.7C0,2.9,2.7,0,6,0z"
         id="shape25"
         transform="translate(0,22.95)"
         stroke="#838383"
         fill="#e8e8e8" />
      <path
         d="M0,6C0,2.7,2.7,0,6,0C9.3,0,12,2.7,12,6C12,9.3,9.3,12,6,12C2.7,12,0,9.3,0,6z"
         id="shape26"
         transform="translate(23.39,-0)"
         stroke="#838383"
         fill="#e8e8e8" />
    </g>
    <g
       transform="translate(511.17,653.54)"
       id="g74">
      <path
         d="M0,25.4C0,11.4,11.8,0,26.3,0C40.8,0,52.5,11.4,52.5,25.4C52.5,39.5,40.8,50.9,26.3,50.9C11.8,50.9,0,39.5,0,25.4z"
         id="shape27"
         stroke-width="0.5"
         stroke="#c2c2c2"
         fill="#eeeeee" />
    </g>
    <path
       d="M0,18.9C0,8.5,8.4,0,18.9,0C29.3,0,37.8,8.5,37.8,18.9C37.8,29.3,29.3,37.8,18.9,37.8C8.4,37.8,0,29.3,0,18.9zM18.9,0L18.9,37.8M20.7,.1C20.7,.1,28.9,6.7,28.7,19C28.5,31.1,20.7,37.8,20.7,37.8M0,18.9L37.8,18.9M16.7,.1C16.7,.1,9.1,3.8,9,19C9,34.3,16.7,37.7,16.7,37.7M5.1,6.1C5.1,6.1,10.2,10.2,18.9,10.2C27.5,10.2,32.6,6,32.6,6M4.8,31.4C4.8,31.4,10.8,27.8,18.8,27.9C26.8,28.1,33,31.4,33,31.4"
       id="shape28"
       transform="translate(412,202.99)"
       stroke-width="3"
       stroke="#ffffff"
       fill="none" />
    <g
       id="shape29"
       transform="translate(472.98,197.69)">
      <text
         class="st2"
         id="text79">
        <tspan
           y="31.1"
           x="27.1"
           id="tspan81">Webview</tspan>
      </text>
    </g>
    <g
       id="shape30"
       transform="translate(739.69,186.07)">
      <text
         class="st3"
         id="text84">
        <tspan
           y="21"
           x="30.2"
           id="tspan86">Eine Webview</tspan>
        <tspan
           y="56"
           x="13.2"
           id="tspan88">ist ein UI Element</tspan>
      </text>
    </g>
    <g
       id="shape31"
       transform="translate(402,268.5)">
      <path
         d="M0,0L272,0L272,135L0,135L0,0z"
         id="path91"
         fill="#ffffff" />
      <path
         d="M0,0L272,0L272,135L0,135L0,0zM0,0L272,135M272,0L0,135"
         id="path93"
         stroke="#999999"
         fill="none" />
    </g>
    <g
       id="shape32"
       transform="translate(150.55,301.01)">
      <text
         class="st3"
         id="text96">
        <tspan
           y="21"
           x="18.4"
           id="tspan98">Hier könnte Ihre </tspan>
        <tspan
           y="56"
           x="11.4"
           id="tspan100">Website stehen :)</tspan>
      </text>
    </g>
    <g
       transform="translate(404.43,545.74)"
       id="g102">
      <path
         d="M3.8,0L262.2,0C264.3,0,266,1.7,266,3.8L266,36.2C266,38.3,264.3,40,262.2,40L3.8,40C1.7,40,0,38.3,0,36.2L0,3.8C0,1.7,1.7,0,3.8,0z"
         id="shape33"
         stroke="#eeeeee"
         fill="#eeeeee" />
      <g
         id="shape34"
         transform="translate(84.29,13.54)">
        <text
           class="st4"
           id="text106">
          <tspan
             y="12"
             x="21.2"
             id="tspan108">Button</tspan>
        </text>
      </g>
    </g>
    <path
       d="M22.3,2L23.8,7.3L25,8.7C25.5,8.8,25.9,9,26.4,9.2L28.2,9.1L33,6.4L35.1,8.5L32.4,13.4L32.4,15.2C32.6,15.7,32.8,16.1,32.9,16.5L34.2,17.8L39.6,19.3L39.6,22.3L34.2,23.8L32.9,25C32.8,25.5,32.6,25.9,32.4,26.4L32.4,28.2L35.1,33L33,35.1L28.2,32.4L26.4,32.4C25.9,32.6,25.5,32.8,25,32.9L23.8,34.2L22.3,39.6L19.3,39.6L17.8,34.2L16.5,32.9C16.1,32.8,15.7,32.6,15.2,32.4L13.4,32.4L8.5,35.1L6.4,33L9.1,28.2L9.2,26.4C9,25.9,8.8,25.5,8.7,25L7.3,23.8L2,22.3L2,19.3L7.3,17.8L8.7,16.5C8.8,16.1,9,15.7,9.2,15.2L9.1,13.4L6.4,8.5L8.5,6.4L13.4,9.1L15.2,9.2C15.7,9,16.1,8.8,16.5,8.7L17.8,7.3L19.3,2L22.3,2M20.8,28.7C25.2,28.7,28.7,25.2,28.7,20.8C28.7,16.4,25.2,12.9,20.8,12.9C16.4,12.9,12.9,16.4,12.9,20.8C12.9,25.2,16.4,28.7,20.8,28.7M23.8,0L17.8,0L15.9,6.8C15.4,7,14.9,7.2,14.4,7.4L8.2,4L4,8.2L7.4,14.4C7.2,14.9,7,15.4,6.8,15.9L0,17.8L0,23.8L6.8,25.7C7,26.2,7.2,26.7,7.4,27.2L4,33.4L8.2,37.6L14.4,34.2C14.9,34.4,15.4,34.6,15.9,34.8L17.8,41.6L23.8,41.6L25.7,34.8C26.2,34.6,26.7,34.4,27.2,34.2L33.4,37.6L37.6,33.4L34.2,27.2C34.4,26.7,34.6,26.2,34.8,25.7L41.6,23.8L41.6,17.8L34.8,15.9C34.6,15.4,34.4,14.9,34.2,14.4L37.6,8.2L33.4,4L27.2,7.4C26.7,7.2,26.2,7,25.7,6.8L23.8,0M20.8,26.7C24.1,26.7,26.7,24.1,26.7,20.8C26.7,17.5,24.1,14.8,20.8,14.8C17.5,14.8,14.8,17.5,14.8,20.8C14.8,24.1,17.5,26.7,20.8,26.7"
       id="shape35"
       transform="translate(412,428.1)"
       stroke="#ffffff"
       fill="#ffffff" />
    <g
       id="shape36"
       transform="translate(477.56,425.27)">
      <text
         class="st2"
         id="text112">
        <tspan
           y="16.6"
           x="22.1"
           id="tspan114">Andere UI </tspan>
        <tspan
           y="45.6"
           x="24.1"
           id="tspan116">Elemente</tspan>
      </text>
    </g>
    <g
       id="shape37"
       transform="translate(150.55,531.5)">
      <text
         class="st3"
         id="text119">
        <tspan
           y="21"
           x="18.2"
           id="tspan121">Zum Beispiel ein </tspan>
        <tspan
           y="56"
           x="65.2"
           id="tspan123">Button</tspan>
      </text>
    </g>
    <g
       id="shape38"
       transform="translate(706.84,401.2)">
      <text
         class="st3"
         id="text126">
        <tspan
           y="21"
           x="59"
           id="tspan128">Webviews sind </tspan>
        <tspan
           y="56"
           x="27"
           id="tspan130">einbindbar genau wie </tspan>
        <tspan
           y="90"
           x="32"
           id="tspan132">andere UI-Elemente.</tspan>
      </text>
    </g>
  </g>
</svg>
